<svg width="24" height="24" viewBox="0 0 24 24" fill="none" xmlns="http://www.w3.org/2000/svg">
<path d="M20.2711 9.08647L9.54835 21.0599C8.99071 21.663 8.2578 22 7.49303 22H3.74884C3.54171 22 3.35052 21.9113 3.20713 21.7517C3.06373 21.592 3 21.3792 3 21.1486L3.0956 16.9446C3.11153 16.1109 3.41425 15.3304 3.94003 14.745L11.5399 6.28381C11.6674 6.14191 11.8905 6.14191 12.0179 6.28381L14.6835 9.2337C14.8587 9.42705 15.1137 9.55299 15.3845 9.55299C15.974 9.55299 16.4361 9.02084 16.4361 8.38226C16.4361 8.06297 16.3245 7.77916 16.1493 7.5663C16.1015 7.49534 13.5634 4.68736 13.5634 4.68736C13.4041 4.50998 13.4041 4.20843 13.5634 4.03104L14.6309 2.82483C15.6187 1.72506 17.212 1.72506 18.1998 2.82483L20.2711 5.13082C21.243 6.21286 21.243 7.9867 20.2711 9.08647Z" fill="#27AE60"/>
</svg>
